<?xml version="1.0" encoding="UTF-8"?>
<svg id="Layer_1" xmlns="http://www.w3.org/2000/svg" xmlns:xlink="http://www.w3.org/1999/xlink" version="1.1" viewBox="0 0 190 56">
  <!-- Generator: Adobe Illustrator 29.5.1, SVG Export Plug-In . SVG Version: 2.1.0 Build 141)  -->
  <defs>
    <style>
      .st0 {
        fill: url(#linear-gradient2);
      }

      .st1 {
        fill: url(#linear-gradient1);
      }

      .st2 {
        fill: url(#linear-gradient3);
      }

      .st3 {
        fill: url(#linear-gradient5);
      }

      .st4 {
        fill: url(#linear-gradient4);
      }

      .st5 {
        fill: url(#linear-gradient);
      }

      .st6 {
        fill: #fff;
      }
    </style>
    <linearGradient id="linear-gradient" x1="24.4" y1="46" x2="9.9" y2="31.5" gradientUnits="userSpaceOnUse">
      <stop offset="0" stop-color="#274a72"/>
      <stop offset="1" stop-color="#1bb7ea"/>
    </linearGradient>
    <linearGradient id="linear-gradient1" x1="7.6" y1="31.2" x2="17.7" y2="13.6" xlink:href="#linear-gradient"/>
    <linearGradient id="linear-gradient2" x1="13.4" y1="26.8" x2="28.6" y2=".5" xlink:href="#linear-gradient"/>
    <linearGradient id="linear-gradient3" x1="32.6" y1="20.1" x2="47.6" y2="46.1" xlink:href="#linear-gradient"/>
    <linearGradient id="linear-gradient4" x1="30.3" y1="10.1" x2="38.4" y2="24.1" xlink:href="#linear-gradient"/>
    <linearGradient id="linear-gradient5" x1="38.6" y1="29" x2="23.4" y2="55.3" xlink:href="#linear-gradient"/>
  </defs>
  <g>
    <path class="st6" d="M75.2,20.2v-.9l-3.8-3.9h-10.8l-3.9,3.9v2.9h4.7v-2h9c0-.1,0,4.2,0,4.2h-10.7l-3.9,3.8v6.7l3.9,3.7h18.6v-4.4h-3v-14.1ZM70.3,34.3h-9.7v-5.4h9.7v5.4Z"/>
    <polygon class="st6" points="82.6 15.5 82.6 20.1 85.7 20.1 85.7 34.3 82.6 34.3 82.6 38.6 94 38.6 94 34.3 90.6 34.3 90.6 20.2 96.7 20.2 96.7 22.6 101.8 22.6 101.8 19.5 97.9 15.5 82.6 15.5"/>
    <polygon class="st6" points="117.6 26 124.2 20.3 126.7 20.3 126.7 15.7 115 15.7 114.9 20.3 117.3 20.3 113 24 113.1 2.2 104.9 2.2 104.9 6.6 108 6.6 107.9 34.3 104.9 34.3 104.9 38.8 115.4 38.8 115.4 34.4 113 34.3 113.1 28.3 119.4 34.3 117.1 34.3 117.1 38.8 129.2 38.8 129.2 34.3 126.7 34.3 117.6 26"/>
    <path class="st6" d="M139,15.5l-4,3.8v15.5l3.8,3.8h14.1l3.7-3.8v-15.3l-3.7-4.1h-14ZM151.7,34.3l-11.8-.2v-14.1h11.8v14.3Z"/>
    <polygon class="st6" points="185.1 34.3 185.1 19.5 181.2 15.5 161.6 15.5 161.6 20.2 164.6 20.2 164.6 34.3 161.6 34.3 161.6 38.6 172.8 38.6 172.8 34.3 169.6 34.3 169.5 20.2 180.3 20.2 180.4 34.3 177 34.3 177 38.6 188.1 38.6 188.1 34.3 185.1 34.3"/>
  </g>
  <path class="st6" d="M72.9,45.1h-5.2l-1.3,1.2v6.1l1.1,1h5.5l1-1.1v-6.1l-1.1-1.2ZM72.8,52.5h-5.1v-6.4h5.1v6.4Z"/>
  <path class="st6" d="M97.9,45.1h-5.2l-1.3,1.2v6.1l1.1,1h5.5l1-1.1v-6.1l-1.1-1.2ZM97.7,52.5h-5.1v-6.4h5.1v6.4Z"/>
  <path class="st6" d="M162.5,45.1h-5.2l-1.3,1.2v6.1l1.1,1h5.5l1-1.1v-6.1l-1.1-1.2ZM162.3,52.5h-5.1v-6.4h5.1v6.4Z"/>
  <polygon class="st6" points="78.7 45 86.6 45 86.6 47.1 85.3 47.1 85.3 46 83.3 46 83.3 52.4 84.1 52.4 84.1 53.6 81.2 53.6 81.2 52.4 82 52.4 82 46 80.1 46 80.1 46.9 78.7 46.9 78.7 45"/>
  <polygon class="st6" points="103.8 46.1 103.8 45 106.6 45 109.1 52.5 111.6 45 114.4 45 114.4 46.1 113.6 46.1 113.6 52.5 114.4 52.5 114.4 53.5 111.7 53.5 111.7 52.4 112.4 52.4 112.3 46 112.2 46 109.9 53.5 108.1 53.5 105.7 46.1 105.5 46.1 105.5 52.4 106.3 52.5 106.3 53.5 103.8 53.5 103.8 52.5 104.5 52.5 104.6 46.1 103.8 46.1"/>
  <polygon class="st6" points="132.7 46 133.7 45 137.6 45 138.6 46 138.6 47.3 137.4 47.3 137.4 46.1 133.9 46.1 133.9 48.8 137.9 48.8 138.7 49.7 138.7 52.6 137.7 53.6 133.8 53.6 132.7 52.6 132.7 51.2 133.9 51.2 133.9 52.4 137.4 52.4 137.4 49.9 133.8 49.9 132.7 48.8 132.7 46"/>
  <polygon class="st6" points="143.8 45 146.6 45 146.6 46.1 145.9 46.1 147.4 48.6 147.8 48.6 149.5 46.1 148.7 46.1 148.7 45 151.2 45 151.2 46.1 150.6 46.1 148.1 49.8 148.1 52.4 149 52.4 149 53.6 146 53.6 146 52.4 147 52.4 147 49.7 144.4 46.1 143.8 46.1 143.8 45"/>
  <polygon class="st6" points="168.4 52.6 169.2 52.6 169.2 46 168.4 46 168.4 45.1 171 45.1 175.4 52.3 175.5 52.3 175.5 45.9 174.8 45.9 174.8 45.1 177.1 45.1 177.1 45.9 176.5 45.9 176.5 53.4 174.6 53.4 170.3 45.9 170.2 45.9 170.1 52.6 170.9 52.6 170.9 53.4 168.4 53.4 168.4 52.6"/>
  <path class="st6" d="M127.2,52.5l-2.9-7.5h-1.5l-3,7.5h-.6v1.1h2.4v-1.1h-.7s.9-2.1.9-2.1h3.3l1,2.1h-.8v1.1s2.7,0,2.7,0v-1.1h-.7ZM122.1,49.4l1.3-3.4,1.2,3.4h-2.6Z"/>
  <g>
    <path class="st5" d="M1.9,39.5l4.3-3.7s6.2,7.6,14.9,6.3c0,0,5.1,0,11.2-4.4,0,0-4.5,7.4-15.7,7.8,0,0-7.9.4-14.6-6.1Z"/>
    <path class="st1" d="M7.8,7.9l4.7,3.1s-5.7,8-2.1,16c0,0,1.3,4.9,7.2,9.6,0,0-8.3-2.4-11.8-13,0,0-2.5-7.5,1.9-15.7Z"/>
    <path class="st0" d="M30.2,1.4l.7,5.6s-9.8.9-13.5,8.8c0,0-2.9,4.2-2.7,11.7,0,0-3.6-7.8,2.3-17.4,0,0,4.1-6.8,13.2-8.7Z"/>
    <path class="st2" d="M44.5,47.8l-4.8-3s5.5-8.1,1.8-16c0,0-1.4-4.9-7.4-9.5,0,0,8.3,2.2,12,12.8,0,0,2.7,7.4-1.6,15.8Z"/>
    <path class="st4" d="M49.6,16.2l-4.2,3.8s-6.3-7.5-14.9-6.1c0,0-5.1,0-11.1,4.5,0,0,4.4-7.4,15.6-8.1,0,0,7.9-.5,14.7,5.9Z"/>
    <path class="st3" d="M22,54.4l-.8-5.6s9.8-1,13.4-9c0,0,2.8-4.2,2.5-11.8,0,0,3.7,7.8-2,17.4,0,0-4,6.8-13.1,8.9Z"/>
  </g>
</svg>